<?xml version="1.0" encoding="UTF-8" standalone="no"?>
<svg
   xmlns:dc="http://purl.org/dc/elements/1.1/"
   xmlns:cc="http://creativecommons.org/ns#"
   xmlns:rdf="http://www.w3.org/1999/02/22-rdf-syntax-ns#"
   xmlns:svg="http://www.w3.org/2000/svg"
   xmlns="http://www.w3.org/2000/svg"
   xmlns:sodipodi="http://sodipodi.sourceforge.net/DTD/sodipodi-0.dtd"
   xmlns:inkscape="http://www.inkscape.org/namespaces/inkscape"
   version="1.1"
   id="Layer_1"
   x="0px"
   y="0px"
   viewBox="0 0 64 64"
   enable-background="new 0 0 64 64"
   xml:space="preserve"
   sodipodi:docname="18337528831606062173.svg"
   inkscape:version="1.0.1 (3bc2e813f5, 2020-09-07)"><metadata
   id="metadata63"><rdf:RDF><cc:Work
       rdf:about=""><dc:format>image/svg+xml</dc:format><dc:type
         rdf:resource="http://purl.org/dc/dcmitype/StillImage" /></cc:Work></rdf:RDF></metadata><defs
   id="defs61">
	
	
	
	
	
	
	
	
	
</defs><sodipodi:namedview
   pagecolor="#ffffff"
   bordercolor="#666666"
   borderopacity="1"
   objecttolerance="10"
   gridtolerance="10"
   guidetolerance="10"
   inkscape:pageopacity="0"
   inkscape:pageshadow="2"
   inkscape:window-width="1600"
   inkscape:window-height="853"
   id="namedview59"
   showgrid="false"
   inkscape:zoom="10.9375"
   inkscape:cx="32"
   inkscape:cy="17.371429"
   inkscape:window-x="0"
   inkscape:window-y="19"
   inkscape:window-maximized="1"
   inkscape:current-layer="Layer_1" />
<g
   id="g174"><g
     id="g12">
		<g
   id="g10">
			<path
   fill="#ffffff"
   d="M 49,30 H 40.6 38.3 15 L 9,50 h 46 z"
   id="path8" />
		</g>
	</g><g
     id="g18">
		<g
   id="g16">
			<path
   id="polygon14"
   style="fill:#63b0e5"
   d="M 26,48 25.6,41.4 51.7,46.9 52,48 Z" />
		</g>
	</g><g
     id="g24">
		<g
   id="g22">
			<path
   id="polygon20"
   style="fill:#fff4c5"
   d="m 25.5,39.3 6,1.3 L 51,44.8 47,32 H 25 Z" />
		</g>
	</g><g
     id="g30">
		<g
   id="g28">
			<path
   id="polygon26"
   style="fill:#54d1ad"
   d="m 12,48 2.8,-8.8 8.8,1.8 0.4,7 z" />
		</g>
	</g><g
     id="g36">
		<g
   id="g34">
			<path
   id="polygon32"
   style="fill:#fcdd5b"
   d="M 31.5,40.6 25.5,39.3 25,32 h -2 l 0.4,6.8 -8,-1.7 -0.6,2.1 8.8,1.8 0.4,7 h 2 L 25.6,41.4 51.7,46.9 51,44.8 Z" />
		</g>
	</g><g
     id="g42">
		<g
   id="g40">
			<path
   id="polygon38"
   style="fill:#63b0e5"
   d="M 15.4,37.1 17,32 h 6 l 0.4,6.8 z" />
		</g>
	</g><g
     id="g48">
		<g
   id="g46">
			<path
   fill="#e84b4b"
   d="m 32,10 c -5.5,0 -10,4.7 -10,10.5 0,3.1 1.7,6.5 3.7,9.5 0.5,0.7 0.9,1.3 1.4,2 2,2.8 4.1,5 4.9,6 0.8,-1 2.9,-3.3 4.9,-6 0.5,-0.6 0.9,-1.3 1.4,-2 2,-3 3.7,-6.4 3.7,-9.5 C 42,14.7 37.5,10 32,10 Z m 0,13 c -1.7,0 -3,-1.3 -3,-3 0,-1.7 1.3,-3 3,-3 1.7,0 3,1.3 3,3 0,1.7 -1.3,3 -3,3 z"
   id="path44" />
		</g>
	</g><g
     id="g54">
		<g
   id="g52">
			<path
   fill="#c93d3d"
   d="m 32,15 c 2.8,0 5,2.2 5,5 0,2.8 -2.2,5 -5,5 -2.8,0 -5,-2.2 -5,-5 0,-2.8 2.2,-5 5,-5 z m 3,5 c 0,-1.7 -1.3,-3 -3,-3 -1.7,0 -3,1.4 -3,3 0,1.6 1.3,3 3,3 1.7,0 3,-1.3 3,-3 z"
   id="path50" />
		</g>
	</g></g>
</svg>
